<?xml version="1.0" encoding="UTF-8" standalone="no"?>
<svg
   xmlns:dc="http://purl.org/dc/elements/1.1/"
   xmlns:cc="http://creativecommons.org/ns#"
   xmlns:rdf="http://www.w3.org/1999/02/22-rdf-syntax-ns#"
   xmlns:svg="http://www.w3.org/2000/svg"
   xmlns="http://www.w3.org/2000/svg"
   xmlns:xlink="http://www.w3.org/1999/xlink"
   xmlns:sodipodi="http://sodipodi.sourceforge.net/DTD/sodipodi-0.dtd"
   xmlns:inkscape="http://www.inkscape.org/namespaces/inkscape"
   height="288pt"
   version="1.1"
   viewBox="0 0 432 288"
   width="432pt"
   id="svg422"
   sodipodi:docname="widerstand.svg"
   inkscape:version="1.0.1 (0767f8302a, 2020-10-17)">
  <metadata
     id="metadata426">
    <rdf:RDF>
      <cc:Work
         rdf:about="">
        <dc:format>image/svg+xml</dc:format>
        <dc:type
           rdf:resource="http://purl.org/dc/dcmitype/StillImage" />
        <dc:title></dc:title>
      </cc:Work>
    </rdf:RDF>
  </metadata>
  <sodipodi:namedview
     pagecolor="#ffffff"
     bordercolor="#666666"
     borderopacity="1"
     objecttolerance="10"
     gridtolerance="10"
     guidetolerance="10"
     inkscape:pageopacity="0"
     inkscape:pageshadow="2"
     inkscape:window-width="732"
     inkscape:window-height="480"
     id="namedview424"
     showgrid="false"
     inkscape:zoom="2.1822917"
     inkscape:cx="288"
     inkscape:cy="192"
     inkscape:window-x="67"
     inkscape:window-y="27"
     inkscape:window-maximized="0"
     inkscape:current-layer="svg422" />
  <defs
     id="defs4">
    <style
       type="text/css"
       id="style2">
*{stroke-linecap:butt;stroke-linejoin:round;}
  </style>
  </defs>
  <g
     id="figure_1">
    <g
       id="patch_1">
      <path
         d="M 0 288  L 432 288  L 432 0  L 0 0  z "
         style="fill:#ffffff;"
         id="path6" />
    </g>
    <g
       id="axes_1">
      <g
         id="patch_2">
        <path
           d="M 54 252  L 388.8 252  L 388.8 34.56  L 54 34.56  z "
           style="fill:#ffffff;"
           id="path9" />
      </g>
      <g
         id="matplotlib.axis_1">
        <g
           id="xtick_1">
          <g
             id="line2d_1">
            <defs
               id="defs13">
              <path
                 d="M 0 0  L 0 3.5  "
                 id="mf8cddbcc85"
                 style="stroke:#000000;stroke-width:0.8;" />
            </defs>
            <g
               id="g17">
              <use
                 style="stroke:#000000;stroke-width:0.8;"
                 x="54"
                 xlink:href="#mf8cddbcc85"
                 y="252"
                 id="use15" />
            </g>
          </g>
          <g
             id="text_1">
            <!-- −10 -->
            <defs
               id="defs23">
              <path
                 d="M 10.59375 35.5  L 73.1875 35.5  L 73.1875 27.203125  L 10.59375 27.203125  z "
                 id="DejaVuSans-8722" />
              <path
                 d="M 12.40625 8.296875  L 28.515625 8.296875  L 28.515625 63.921875  L 10.984375 60.40625  L 10.984375 69.390625  L 28.421875 72.90625  L 38.28125 72.90625  L 38.28125 8.296875  L 54.390625 8.296875  L 54.390625 0  L 12.40625 0  z "
                 id="DejaVuSans-49" />
              <path
                 d="M 31.78125 66.40625  Q 24.171875 66.40625 20.328125 58.90625  Q 16.5 51.421875 16.5 36.375  Q 16.5 21.390625 20.328125 13.890625  Q 24.171875 6.390625 31.78125 6.390625  Q 39.453125 6.390625 43.28125 13.890625  Q 47.125 21.390625 47.125 36.375  Q 47.125 51.421875 43.28125 58.90625  Q 39.453125 66.40625 31.78125 66.40625  z M 31.78125 74.21875  Q 44.046875 74.21875 50.515625 64.515625  Q 56.984375 54.828125 56.984375 36.375  Q 56.984375 17.96875 50.515625 8.265625  Q 44.046875 -1.421875 31.78125 -1.421875  Q 19.53125 -1.421875 13.0625 8.265625  Q 6.59375 17.96875 6.59375 36.375  Q 6.59375 54.828125 13.0625 64.515625  Q 19.53125 74.21875 31.78125 74.21875  z "
                 id="DejaVuSans-48" />
            </defs>
            <g
               transform="translate(43.447656 266.598437)scale(0.1 -0.1)"
               id="g31">
              <use
                 xlink:href="#DejaVuSans-8722"
                 id="use25" />
              <use
                 x="83.789062"
                 xlink:href="#DejaVuSans-49"
                 id="use27" />
              <use
                 x="147.412109"
                 xlink:href="#DejaVuSans-48"
                 id="use29" />
            </g>
          </g>
        </g>
        <g
           id="xtick_2">
          <g
             id="line2d_2">
            <g
               id="g37">
              <use
                 style="stroke:#000000;stroke-width:0.8;"
                 x="87.48"
                 xlink:href="#mf8cddbcc85"
                 y="252"
                 id="use35" />
            </g>
          </g>
          <g
             id="text_2">
            <!-- −8 -->
            <defs
               id="defs41">
              <path
                 d="M 31.78125 34.625  Q 24.75 34.625 20.71875 30.859375  Q 16.703125 27.09375 16.703125 20.515625  Q 16.703125 13.921875 20.71875 10.15625  Q 24.75 6.390625 31.78125 6.390625  Q 38.8125 6.390625 42.859375 10.171875  Q 46.921875 13.96875 46.921875 20.515625  Q 46.921875 27.09375 42.890625 30.859375  Q 38.875 34.625 31.78125 34.625  z M 21.921875 38.8125  Q 15.578125 40.375 12.03125 44.71875  Q 8.5 49.078125 8.5 55.328125  Q 8.5 64.0625 14.71875 69.140625  Q 20.953125 74.21875 31.78125 74.21875  Q 42.671875 74.21875 48.875 69.140625  Q 55.078125 64.0625 55.078125 55.328125  Q 55.078125 49.078125 51.53125 44.71875  Q 48 40.375 41.703125 38.8125  Q 48.828125 37.15625 52.796875 32.3125  Q 56.78125 27.484375 56.78125 20.515625  Q 56.78125 9.90625 50.3125 4.234375  Q 43.84375 -1.421875 31.78125 -1.421875  Q 19.734375 -1.421875 13.25 4.234375  Q 6.78125 9.90625 6.78125 20.515625  Q 6.78125 27.484375 10.78125 32.3125  Q 14.796875 37.15625 21.921875 38.8125  z M 18.3125 54.390625  Q 18.3125 48.734375 21.84375 45.5625  Q 25.390625 42.390625 31.78125 42.390625  Q 38.140625 42.390625 41.71875 45.5625  Q 45.3125 48.734375 45.3125 54.390625  Q 45.3125 60.0625 41.71875 63.234375  Q 38.140625 66.40625 31.78125 66.40625  Q 25.390625 66.40625 21.84375 63.234375  Q 18.3125 60.0625 18.3125 54.390625  z "
                 id="DejaVuSans-56" />
            </defs>
            <g
               transform="translate(80.108906 266.598437)scale(0.1 -0.1)"
               id="g47">
              <use
                 xlink:href="#DejaVuSans-8722"
                 id="use43" />
              <use
                 x="83.789062"
                 xlink:href="#DejaVuSans-56"
                 id="use45" />
            </g>
          </g>
        </g>
        <g
           id="xtick_3">
          <g
             id="line2d_3">
            <g
               id="g53">
              <use
                 style="stroke:#000000;stroke-width:0.8;"
                 x="120.96"
                 xlink:href="#mf8cddbcc85"
                 y="252"
                 id="use51" />
            </g>
          </g>
          <g
             id="text_3">
            <!-- −6 -->
            <defs
               id="defs57">
              <path
                 d="M 33.015625 40.375  Q 26.375 40.375 22.484375 35.828125  Q 18.609375 31.296875 18.609375 23.390625  Q 18.609375 15.53125 22.484375 10.953125  Q 26.375 6.390625 33.015625 6.390625  Q 39.65625 6.390625 43.53125 10.953125  Q 47.40625 15.53125 47.40625 23.390625  Q 47.40625 31.296875 43.53125 35.828125  Q 39.65625 40.375 33.015625 40.375  z M 52.59375 71.296875  L 52.59375 62.3125  Q 48.875 64.0625 45.09375 64.984375  Q 41.3125 65.921875 37.59375 65.921875  Q 27.828125 65.921875 22.671875 59.328125  Q 17.53125 52.734375 16.796875 39.40625  Q 19.671875 43.65625 24.015625 45.921875  Q 28.375 48.1875 33.59375 48.1875  Q 44.578125 48.1875 50.953125 41.515625  Q 57.328125 34.859375 57.328125 23.390625  Q 57.328125 12.15625 50.6875 5.359375  Q 44.046875 -1.421875 33.015625 -1.421875  Q 20.359375 -1.421875 13.671875 8.265625  Q 6.984375 17.96875 6.984375 36.375  Q 6.984375 53.65625 15.1875 63.9375  Q 23.390625 74.21875 37.203125 74.21875  Q 40.921875 74.21875 44.703125 73.484375  Q 48.484375 72.75 52.59375 71.296875  z "
                 id="DejaVuSans-54" />
            </defs>
            <g
               transform="translate(113.588906 266.598437)scale(0.1 -0.1)"
               id="g63">
              <use
                 xlink:href="#DejaVuSans-8722"
                 id="use59" />
              <use
                 x="83.789062"
                 xlink:href="#DejaVuSans-54"
                 id="use61" />
            </g>
          </g>
        </g>
        <g
           id="xtick_4">
          <g
             id="line2d_4">
            <g
               id="g69">
              <use
                 style="stroke:#000000;stroke-width:0.8;"
                 x="154.44"
                 xlink:href="#mf8cddbcc85"
                 y="252"
                 id="use67" />
            </g>
          </g>
          <g
             id="text_4">
            <!-- −4 -->
            <defs
               id="defs73">
              <path
                 d="M 37.796875 64.3125  L 12.890625 25.390625  L 37.796875 25.390625  z M 35.203125 72.90625  L 47.609375 72.90625  L 47.609375 25.390625  L 58.015625 25.390625  L 58.015625 17.1875  L 47.609375 17.1875  L 47.609375 0  L 37.796875 0  L 37.796875 17.1875  L 4.890625 17.1875  L 4.890625 26.703125  z "
                 id="DejaVuSans-52" />
            </defs>
            <g
               transform="translate(147.068906 266.598437)scale(0.1 -0.1)"
               id="g79">
              <use
                 xlink:href="#DejaVuSans-8722"
                 id="use75" />
              <use
                 x="83.789062"
                 xlink:href="#DejaVuSans-52"
                 id="use77" />
            </g>
          </g>
        </g>
        <g
           id="xtick_5">
          <g
             id="line2d_5">
            <g
               id="g85">
              <use
                 style="stroke:#000000;stroke-width:0.8;"
                 x="187.92"
                 xlink:href="#mf8cddbcc85"
                 y="252"
                 id="use83" />
            </g>
          </g>
          <g
             id="text_5">
            <!-- −2 -->
            <defs
               id="defs89">
              <path
                 d="M 19.1875 8.296875  L 53.609375 8.296875  L 53.609375 0  L 7.328125 0  L 7.328125 8.296875  Q 12.9375 14.109375 22.625 23.890625  Q 32.328125 33.6875 34.8125 36.53125  Q 39.546875 41.84375 41.421875 45.53125  Q 43.3125 49.21875 43.3125 52.78125  Q 43.3125 58.59375 39.234375 62.25  Q 35.15625 65.921875 28.609375 65.921875  Q 23.96875 65.921875 18.8125 64.3125  Q 13.671875 62.703125 7.8125 59.421875  L 7.8125 69.390625  Q 13.765625 71.78125 18.9375 73  Q 24.125 74.21875 28.421875 74.21875  Q 39.75 74.21875 46.484375 68.546875  Q 53.21875 62.890625 53.21875 53.421875  Q 53.21875 48.921875 51.53125 44.890625  Q 49.859375 40.875 45.40625 35.40625  Q 44.1875 33.984375 37.640625 27.21875  Q 31.109375 20.453125 19.1875 8.296875  z "
                 id="DejaVuSans-50" />
            </defs>
            <g
               transform="translate(180.548906 266.598437)scale(0.1 -0.1)"
               id="g95">
              <use
                 xlink:href="#DejaVuSans-8722"
                 id="use91" />
              <use
                 x="83.789062"
                 xlink:href="#DejaVuSans-50"
                 id="use93" />
            </g>
          </g>
        </g>
        <g
           id="xtick_6">
          <g
             id="line2d_6">
            <g
               id="g101">
              <use
                 style="stroke:#000000;stroke-width:0.8;"
                 x="221.4"
                 xlink:href="#mf8cddbcc85"
                 y="252"
                 id="use99" />
            </g>
          </g>
          <g
             id="text_6">
            <!-- 0 -->
            <g
               transform="translate(218.21875 266.598437)scale(0.1 -0.1)"
               id="g106">
              <use
                 xlink:href="#DejaVuSans-48"
                 id="use104" />
            </g>
          </g>
        </g>
        <g
           id="xtick_7">
          <g
             id="line2d_7">
            <g
               id="g112">
              <use
                 style="stroke:#000000;stroke-width:0.8;"
                 x="254.88"
                 xlink:href="#mf8cddbcc85"
                 y="252"
                 id="use110" />
            </g>
          </g>
          <g
             id="text_7">
            <!-- 2 -->
            <g
               transform="translate(251.69875 266.598437)scale(0.1 -0.1)"
               id="g117">
              <use
                 xlink:href="#DejaVuSans-50"
                 id="use115" />
            </g>
          </g>
        </g>
        <g
           id="xtick_8">
          <g
             id="line2d_8">
            <g
               id="g123">
              <use
                 style="stroke:#000000;stroke-width:0.8;"
                 x="288.36"
                 xlink:href="#mf8cddbcc85"
                 y="252"
                 id="use121" />
            </g>
          </g>
          <g
             id="text_8">
            <!-- 4 -->
            <g
               transform="translate(285.17875 266.598437)scale(0.1 -0.1)"
               id="g128">
              <use
                 xlink:href="#DejaVuSans-52"
                 id="use126" />
            </g>
          </g>
        </g>
        <g
           id="xtick_9">
          <g
             id="line2d_9">
            <g
               id="g134">
              <use
                 style="stroke:#000000;stroke-width:0.8;"
                 x="321.84"
                 xlink:href="#mf8cddbcc85"
                 y="252"
                 id="use132" />
            </g>
          </g>
          <g
             id="text_9">
            <!-- 6 -->
            <g
               transform="translate(318.65875 266.598437)scale(0.1 -0.1)"
               id="g139">
              <use
                 xlink:href="#DejaVuSans-54"
                 id="use137" />
            </g>
          </g>
        </g>
        <g
           id="xtick_10">
          <g
             id="line2d_10">
            <g
               id="g145">
              <use
                 style="stroke:#000000;stroke-width:0.8;"
                 x="355.32"
                 xlink:href="#mf8cddbcc85"
                 y="252"
                 id="use143" />
            </g>
          </g>
          <g
             id="text_10">
            <!-- 8 -->
            <g
               transform="translate(352.13875 266.598437)scale(0.1 -0.1)"
               id="g150">
              <use
                 xlink:href="#DejaVuSans-56"
                 id="use148" />
            </g>
          </g>
        </g>
        <g
           id="xtick_11">
          <g
             id="line2d_11">
            <g
               id="g156">
              <use
                 style="stroke:#000000;stroke-width:0.8;"
                 x="388.8"
                 xlink:href="#mf8cddbcc85"
                 y="252"
                 id="use154" />
            </g>
          </g>
          <g
             id="text_11">
            <!-- 10 -->
            <g
               transform="translate(382.4375 266.598437)scale(0.1 -0.1)"
               id="g163">
              <use
                 xlink:href="#DejaVuSans-49"
                 id="use159" />
              <use
                 x="63.623047"
                 xlink:href="#DejaVuSans-48"
                 id="use161" />
            </g>
          </g>
        </g>
        <g
           id="text_12">
          <!-- Spannung / V -->
          <defs
             id="defs176">
            <path
               d="M 53.515625 70.515625  L 53.515625 60.890625  Q 47.90625 63.578125 42.921875 64.890625  Q 37.9375 66.21875 33.296875 66.21875  Q 25.25 66.21875 20.875 63.09375  Q 16.5 59.96875 16.5 54.203125  Q 16.5 49.359375 19.40625 46.890625  Q 22.3125 44.4375 30.421875 42.921875  L 36.375 41.703125  Q 47.40625 39.59375 52.65625 34.296875  Q 57.90625 29 57.90625 20.125  Q 57.90625 9.515625 50.796875 4.046875  Q 43.703125 -1.421875 29.984375 -1.421875  Q 24.8125 -1.421875 18.96875 -0.25  Q 13.140625 0.921875 6.890625 3.21875  L 6.890625 13.375  Q 12.890625 10.015625 18.65625 8.296875  Q 24.421875 6.59375 29.984375 6.59375  Q 38.421875 6.59375 43.015625 9.90625  Q 47.609375 13.234375 47.609375 19.390625  Q 47.609375 24.75 44.3125 27.78125  Q 41.015625 30.8125 33.5 32.328125  L 27.484375 33.5  Q 16.453125 35.6875 11.515625 40.375  Q 6.59375 45.0625 6.59375 53.421875  Q 6.59375 63.09375 13.40625 68.65625  Q 20.21875 74.21875 32.171875 74.21875  Q 37.3125 74.21875 42.625 73.28125  Q 47.953125 72.359375 53.515625 70.515625  z "
               id="DejaVuSans-83" />
            <path
               d="M 18.109375 8.203125  L 18.109375 -20.796875  L 9.078125 -20.796875  L 9.078125 54.6875  L 18.109375 54.6875  L 18.109375 46.390625  Q 20.953125 51.265625 25.265625 53.625  Q 29.59375 56 35.59375 56  Q 45.5625 56 51.78125 48.09375  Q 58.015625 40.1875 58.015625 27.296875  Q 58.015625 14.40625 51.78125 6.484375  Q 45.5625 -1.421875 35.59375 -1.421875  Q 29.59375 -1.421875 25.265625 0.953125  Q 20.953125 3.328125 18.109375 8.203125  z M 48.6875 27.296875  Q 48.6875 37.203125 44.609375 42.84375  Q 40.53125 48.484375 33.40625 48.484375  Q 26.265625 48.484375 22.1875 42.84375  Q 18.109375 37.203125 18.109375 27.296875  Q 18.109375 17.390625 22.1875 11.75  Q 26.265625 6.109375 33.40625 6.109375  Q 40.53125 6.109375 44.609375 11.75  Q 48.6875 17.390625 48.6875 27.296875  z "
               id="DejaVuSans-112" />
            <path
               d="M 34.28125 27.484375  Q 23.390625 27.484375 19.1875 25  Q 14.984375 22.515625 14.984375 16.5  Q 14.984375 11.71875 18.140625 8.90625  Q 21.296875 6.109375 26.703125 6.109375  Q 34.1875 6.109375 38.703125 11.40625  Q 43.21875 16.703125 43.21875 25.484375  L 43.21875 27.484375  z M 52.203125 31.203125  L 52.203125 0  L 43.21875 0  L 43.21875 8.296875  Q 40.140625 3.328125 35.546875 0.953125  Q 30.953125 -1.421875 24.3125 -1.421875  Q 15.921875 -1.421875 10.953125 3.296875  Q 6 8.015625 6 15.921875  Q 6 25.140625 12.171875 29.828125  Q 18.359375 34.515625 30.609375 34.515625  L 43.21875 34.515625  L 43.21875 35.40625  Q 43.21875 41.609375 39.140625 45  Q 35.0625 48.390625 27.6875 48.390625  Q 23 48.390625 18.546875 47.265625  Q 14.109375 46.140625 10.015625 43.890625  L 10.015625 52.203125  Q 14.9375 54.109375 19.578125 55.046875  Q 24.21875 56 28.609375 56  Q 40.484375 56 46.34375 49.84375  Q 52.203125 43.703125 52.203125 31.203125  z "
               id="DejaVuSans-97" />
            <path
               d="M 54.890625 33.015625  L 54.890625 0  L 45.90625 0  L 45.90625 32.71875  Q 45.90625 40.484375 42.875 44.328125  Q 39.84375 48.1875 33.796875 48.1875  Q 26.515625 48.1875 22.3125 43.546875  Q 18.109375 38.921875 18.109375 30.90625  L 18.109375 0  L 9.078125 0  L 9.078125 54.6875  L 18.109375 54.6875  L 18.109375 46.1875  Q 21.34375 51.125 25.703125 53.5625  Q 30.078125 56 35.796875 56  Q 45.21875 56 50.046875 50.171875  Q 54.890625 44.34375 54.890625 33.015625  z "
               id="DejaVuSans-110" />
            <path
               d="M 8.5 21.578125  L 8.5 54.6875  L 17.484375 54.6875  L 17.484375 21.921875  Q 17.484375 14.15625 20.5 10.265625  Q 23.53125 6.390625 29.59375 6.390625  Q 36.859375 6.390625 41.078125 11.03125  Q 45.3125 15.671875 45.3125 23.6875  L 45.3125 54.6875  L 54.296875 54.6875  L 54.296875 0  L 45.3125 0  L 45.3125 8.40625  Q 42.046875 3.421875 37.71875 1  Q 33.40625 -1.421875 27.6875 -1.421875  Q 18.265625 -1.421875 13.375 4.4375  Q 8.5 10.296875 8.5 21.578125  z M 31.109375 56  z "
               id="DejaVuSans-117" />
            <path
               d="M 45.40625 27.984375  Q 45.40625 37.75 41.375 43.109375  Q 37.359375 48.484375 30.078125 48.484375  Q 22.859375 48.484375 18.828125 43.109375  Q 14.796875 37.75 14.796875 27.984375  Q 14.796875 18.265625 18.828125 12.890625  Q 22.859375 7.515625 30.078125 7.515625  Q 37.359375 7.515625 41.375 12.890625  Q 45.40625 18.265625 45.40625 27.984375  z M 54.390625 6.78125  Q 54.390625 -7.171875 48.1875 -13.984375  Q 42 -20.796875 29.203125 -20.796875  Q 24.46875 -20.796875 20.265625 -20.09375  Q 16.0625 -19.390625 12.109375 -17.921875  L 12.109375 -9.1875  Q 16.0625 -11.328125 19.921875 -12.34375  Q 23.78125 -13.375 27.78125 -13.375  Q 36.625 -13.375 41.015625 -8.765625  Q 45.40625 -4.15625 45.40625 5.171875  L 45.40625 9.625  Q 42.625 4.78125 38.28125 2.390625  Q 33.9375 0 27.875 0  Q 17.828125 0 11.671875 7.65625  Q 5.515625 15.328125 5.515625 27.984375  Q 5.515625 40.671875 11.671875 48.328125  Q 17.828125 56 27.875 56  Q 33.9375 56 38.28125 53.609375  Q 42.625 51.21875 45.40625 46.390625  L 45.40625 54.6875  L 54.390625 54.6875  z "
               id="DejaVuSans-103" />
            <path
               id="DejaVuSans-32" />
            <path
               d="M 25.390625 72.90625  L 33.6875 72.90625  L 8.296875 -9.28125  L 0 -9.28125  z "
               id="DejaVuSans-47" />
            <path
               d="M 28.609375 0  L 0.78125 72.90625  L 11.078125 72.90625  L 34.1875 11.53125  L 57.328125 72.90625  L 67.578125 72.90625  L 39.796875 0  z "
               id="DejaVuSans-86" />
          </defs>
          <g
             transform="translate(187.855469 280.276563)scale(0.1 -0.1)"
             id="g202">
            <use
               xlink:href="#DejaVuSans-83"
               id="use178" />
            <use
               x="63.476562"
               xlink:href="#DejaVuSans-112"
               id="use180" />
            <use
               x="126.953125"
               xlink:href="#DejaVuSans-97"
               id="use182" />
            <use
               x="188.232422"
               xlink:href="#DejaVuSans-110"
               id="use184" />
            <use
               x="251.611328"
               xlink:href="#DejaVuSans-110"
               id="use186" />
            <use
               x="314.990234"
               xlink:href="#DejaVuSans-117"
               id="use188" />
            <use
               x="378.369141"
               xlink:href="#DejaVuSans-110"
               id="use190" />
            <use
               x="441.748047"
               xlink:href="#DejaVuSans-103"
               id="use192" />
            <use
               x="505.224609"
               xlink:href="#DejaVuSans-32"
               id="use194" />
            <use
               x="537.011719"
               xlink:href="#DejaVuSans-47"
               id="use196" />
            <use
               x="570.703125"
               xlink:href="#DejaVuSans-32"
               id="use198" />
            <use
               x="602.490234"
               xlink:href="#DejaVuSans-86"
               id="use200" />
          </g>
        </g>
      </g>
      <g
         id="matplotlib.axis_2">
        <g
           id="ytick_1">
          <g
             id="line2d_12">
            <defs
               id="defs207">
              <path
                 d="M 0 0  L -3.5 0  "
                 id="mc120bbbb6b"
                 style="stroke:#000000;stroke-width:0.8;" />
            </defs>
            <g
               id="g211">
              <use
                 style="stroke:#000000;stroke-width:0.8;"
                 x="54"
                 xlink:href="#mc120bbbb6b"
                 y="230.256"
                 id="use209" />
            </g>
          </g>
          <g
             id="text_13">
            <!-- −4 -->
            <g
               transform="translate(32.257812 234.055219)scale(0.1 -0.1)"
               id="g218">
              <use
                 xlink:href="#DejaVuSans-8722"
                 id="use214" />
              <use
                 x="83.789062"
                 xlink:href="#DejaVuSans-52"
                 id="use216" />
            </g>
          </g>
        </g>
        <g
           id="ytick_2">
          <g
             id="line2d_13">
            <g
               id="g224">
              <use
                 style="stroke:#000000;stroke-width:0.8;"
                 x="54"
                 xlink:href="#mc120bbbb6b"
                 y="186.768"
                 id="use222" />
            </g>
          </g>
          <g
             id="text_14">
            <!-- −2 -->
            <g
               transform="translate(32.257812 190.567219)scale(0.1 -0.1)"
               id="g231">
              <use
                 xlink:href="#DejaVuSans-8722"
                 id="use227" />
              <use
                 x="83.789062"
                 xlink:href="#DejaVuSans-50"
                 id="use229" />
            </g>
          </g>
        </g>
        <g
           id="ytick_3">
          <g
             id="line2d_14">
            <g
               id="g237">
              <use
                 style="stroke:#000000;stroke-width:0.8;"
                 x="54"
                 xlink:href="#mc120bbbb6b"
                 y="143.28"
                 id="use235" />
            </g>
          </g>
          <g
             id="text_15">
            <!-- 0 -->
            <g
               transform="translate(40.6375 147.079219)scale(0.1 -0.1)"
               id="g242">
              <use
                 xlink:href="#DejaVuSans-48"
                 id="use240" />
            </g>
          </g>
        </g>
        <g
           id="ytick_4">
          <g
             id="line2d_15">
            <g
               id="g248">
              <use
                 style="stroke:#000000;stroke-width:0.8;"
                 x="54"
                 xlink:href="#mc120bbbb6b"
                 y="99.792"
                 id="use246" />
            </g>
          </g>
          <g
             id="text_16">
            <!-- 2 -->
            <g
               transform="translate(40.6375 103.591219)scale(0.1 -0.1)"
               id="g253">
              <use
                 xlink:href="#DejaVuSans-50"
                 id="use251" />
            </g>
          </g>
        </g>
        <g
           id="ytick_5">
          <g
             id="line2d_16">
            <g
               id="g259">
              <use
                 style="stroke:#000000;stroke-width:0.8;"
                 x="54"
                 xlink:href="#mc120bbbb6b"
                 y="56.304"
                 id="use257" />
            </g>
          </g>
          <g
             id="text_17">
            <!-- 4 -->
            <g
               transform="translate(40.6375 60.103219)scale(0.1 -0.1)"
               id="g264">
              <use
                 xlink:href="#DejaVuSans-52"
                 id="use262" />
            </g>
          </g>
        </g>
        <g
           id="text_18">
          <!-- Stromstärke / A -->
          <defs
             id="defs277">
            <path
               d="M 18.3125 70.21875  L 18.3125 54.6875  L 36.8125 54.6875  L 36.8125 47.703125  L 18.3125 47.703125  L 18.3125 18.015625  Q 18.3125 11.328125 20.140625 9.421875  Q 21.96875 7.515625 27.59375 7.515625  L 36.8125 7.515625  L 36.8125 0  L 27.59375 0  Q 17.1875 0 13.234375 3.875  Q 9.28125 7.765625 9.28125 18.015625  L 9.28125 47.703125  L 2.6875 47.703125  L 2.6875 54.6875  L 9.28125 54.6875  L 9.28125 70.21875  z "
               id="DejaVuSans-116" />
            <path
               d="M 41.109375 46.296875  Q 39.59375 47.171875 37.8125 47.578125  Q 36.03125 48 33.890625 48  Q 26.265625 48 22.1875 43.046875  Q 18.109375 38.09375 18.109375 28.8125  L 18.109375 0  L 9.078125 0  L 9.078125 54.6875  L 18.109375 54.6875  L 18.109375 46.1875  Q 20.953125 51.171875 25.484375 53.578125  Q 30.03125 56 36.53125 56  Q 37.453125 56 38.578125 55.875  Q 39.703125 55.765625 41.0625 55.515625  z "
               id="DejaVuSans-114" />
            <path
               d="M 30.609375 48.390625  Q 23.390625 48.390625 19.1875 42.75  Q 14.984375 37.109375 14.984375 27.296875  Q 14.984375 17.484375 19.15625 11.84375  Q 23.34375 6.203125 30.609375 6.203125  Q 37.796875 6.203125 41.984375 11.859375  Q 46.1875 17.53125 46.1875 27.296875  Q 46.1875 37.015625 41.984375 42.703125  Q 37.796875 48.390625 30.609375 48.390625  z M 30.609375 56  Q 42.328125 56 49.015625 48.375  Q 55.71875 40.765625 55.71875 27.296875  Q 55.71875 13.875 49.015625 6.21875  Q 42.328125 -1.421875 30.609375 -1.421875  Q 18.84375 -1.421875 12.171875 6.21875  Q 5.515625 13.875 5.515625 27.296875  Q 5.515625 40.765625 12.171875 48.375  Q 18.84375 56 30.609375 56  z "
               id="DejaVuSans-111" />
            <path
               d="M 52 44.1875  Q 55.375 50.25 60.0625 53.125  Q 64.75 56 71.09375 56  Q 79.640625 56 84.28125 50.015625  Q 88.921875 44.046875 88.921875 33.015625  L 88.921875 0  L 79.890625 0  L 79.890625 32.71875  Q 79.890625 40.578125 77.09375 44.375  Q 74.3125 48.1875 68.609375 48.1875  Q 61.625 48.1875 57.5625 43.546875  Q 53.515625 38.921875 53.515625 30.90625  L 53.515625 0  L 44.484375 0  L 44.484375 32.71875  Q 44.484375 40.625 41.703125 44.40625  Q 38.921875 48.1875 33.109375 48.1875  Q 26.21875 48.1875 22.15625 43.53125  Q 18.109375 38.875 18.109375 30.90625  L 18.109375 0  L 9.078125 0  L 9.078125 54.6875  L 18.109375 54.6875  L 18.109375 46.1875  Q 21.1875 51.21875 25.484375 53.609375  Q 29.78125 56 35.6875 56  Q 41.65625 56 45.828125 52.96875  Q 50 49.953125 52 44.1875  z "
               id="DejaVuSans-109" />
            <path
               d="M 44.28125 53.078125  L 44.28125 44.578125  Q 40.484375 46.53125 36.375 47.5  Q 32.28125 48.484375 27.875 48.484375  Q 21.1875 48.484375 17.84375 46.4375  Q 14.5 44.390625 14.5 40.28125  Q 14.5 37.15625 16.890625 35.375  Q 19.28125 33.59375 26.515625 31.984375  L 29.59375 31.296875  Q 39.15625 29.25 43.1875 25.515625  Q 47.21875 21.78125 47.21875 15.09375  Q 47.21875 7.46875 41.1875 3.015625  Q 35.15625 -1.421875 24.609375 -1.421875  Q 20.21875 -1.421875 15.453125 -0.5625  Q 10.6875 0.296875 5.421875 2  L 5.421875 11.28125  Q 10.40625 8.6875 15.234375 7.390625  Q 20.0625 6.109375 24.8125 6.109375  Q 31.15625 6.109375 34.5625 8.28125  Q 37.984375 10.453125 37.984375 14.40625  Q 37.984375 18.0625 35.515625 20.015625  Q 33.0625 21.96875 24.703125 23.78125  L 21.578125 24.515625  Q 13.234375 26.265625 9.515625 29.90625  Q 5.8125 33.546875 5.8125 39.890625  Q 5.8125 47.609375 11.28125 51.796875  Q 16.75 56 26.8125 56  Q 31.78125 56 36.171875 55.265625  Q 40.578125 54.546875 44.28125 53.078125  z "
               id="DejaVuSans-115" />
            <path
               d="M 34.28125 27.484375  Q 23.390625 27.484375 19.1875 25  Q 14.984375 22.515625 14.984375 16.5  Q 14.984375 11.71875 18.140625 8.90625  Q 21.296875 6.109375 26.703125 6.109375  Q 34.1875 6.109375 38.703125 11.40625  Q 43.21875 16.703125 43.21875 25.484375  L 43.21875 27.484375  z M 52.203125 31.203125  L 52.203125 0  L 43.21875 0  L 43.21875 8.296875  Q 40.140625 3.328125 35.546875 0.953125  Q 30.953125 -1.421875 24.3125 -1.421875  Q 15.921875 -1.421875 10.953125 3.296875  Q 6 8.015625 6 15.921875  Q 6 25.140625 12.171875 29.828125  Q 18.359375 34.515625 30.609375 34.515625  L 43.21875 34.515625  L 43.21875 35.40625  Q 43.21875 41.609375 39.140625 45  Q 35.0625 48.390625 27.6875 48.390625  Q 23 48.390625 18.546875 47.265625  Q 14.109375 46.140625 10.015625 43.890625  L 10.015625 52.203125  Q 14.9375 54.109375 19.578125 55.046875  Q 24.21875 56 28.609375 56  Q 40.484375 56 46.34375 49.84375  Q 52.203125 43.703125 52.203125 31.203125  z M 33.59375 75.78125  L 43.5 75.78125  L 43.5 65.921875  L 33.59375 65.921875  z M 14.5 75.78125  L 24.40625 75.78125  L 24.40625 65.921875  L 14.5 65.921875  z "
               id="DejaVuSans-228" />
            <path
               d="M 9.078125 75.984375  L 18.109375 75.984375  L 18.109375 31.109375  L 44.921875 54.6875  L 56.390625 54.6875  L 27.390625 29.109375  L 57.625 0  L 45.90625 0  L 18.109375 26.703125  L 18.109375 0  L 9.078125 0  z "
               id="DejaVuSans-107" />
            <path
               d="M 56.203125 29.59375  L 56.203125 25.203125  L 14.890625 25.203125  Q 15.484375 15.921875 20.484375 11.0625  Q 25.484375 6.203125 34.421875 6.203125  Q 39.59375 6.203125 44.453125 7.46875  Q 49.3125 8.734375 54.109375 11.28125  L 54.109375 2.78125  Q 49.265625 0.734375 44.1875 -0.34375  Q 39.109375 -1.421875 33.890625 -1.421875  Q 20.796875 -1.421875 13.15625 6.1875  Q 5.515625 13.8125 5.515625 26.8125  Q 5.515625 40.234375 12.765625 48.109375  Q 20.015625 56 32.328125 56  Q 43.359375 56 49.78125 48.890625  Q 56.203125 41.796875 56.203125 29.59375  z M 47.21875 32.234375  Q 47.125 39.59375 43.09375 43.984375  Q 39.0625 48.390625 32.421875 48.390625  Q 24.90625 48.390625 20.390625 44.140625  Q 15.875 39.890625 15.1875 32.171875  z "
               id="DejaVuSans-101" />
            <path
               d="M 34.1875 63.1875  L 20.796875 26.90625  L 47.609375 26.90625  z M 28.609375 72.90625  L 39.796875 72.90625  L 67.578125 0  L 57.328125 0  L 50.6875 18.703125  L 17.828125 18.703125  L 11.1875 0  L 0.78125 0  z "
               id="DejaVuSans-65" />
          </defs>
          <g
             transform="translate(26.178125 182.334688)rotate(-90)scale(0.1 -0.1)"
             id="g309">
            <use
               xlink:href="#DejaVuSans-83"
               id="use279" />
            <use
               x="63.476562"
               xlink:href="#DejaVuSans-116"
               id="use281" />
            <use
               x="102.685547"
               xlink:href="#DejaVuSans-114"
               id="use283" />
            <use
               x="143.767578"
               xlink:href="#DejaVuSans-111"
               id="use285" />
            <use
               x="204.949219"
               xlink:href="#DejaVuSans-109"
               id="use287" />
            <use
               x="302.361328"
               xlink:href="#DejaVuSans-115"
               id="use289" />
            <use
               x="354.460938"
               xlink:href="#DejaVuSans-116"
               id="use291" />
            <use
               x="393.669922"
               xlink:href="#DejaVuSans-228"
               id="use293" />
            <use
               x="454.949219"
               xlink:href="#DejaVuSans-114"
               id="use295" />
            <use
               x="496.0625"
               xlink:href="#DejaVuSans-107"
               id="use297" />
            <use
               x="553.925781"
               xlink:href="#DejaVuSans-101"
               id="use299" />
            <use
               x="615.449219"
               xlink:href="#DejaVuSans-32"
               id="use301" />
            <use
               x="647.236328"
               xlink:href="#DejaVuSans-47"
               id="use303" />
            <use
               x="680.927734"
               xlink:href="#DejaVuSans-32"
               id="use305" />
            <use
               x="712.714844"
               xlink:href="#DejaVuSans-65"
               id="use307" />
          </g>
        </g>
      </g>
      <g
         id="line2d_17">
        <path
           clip-path="url(#pf7b9416be1)"
           d="M 54 143.28  L 388.8 143.28  "
           style="fill:none;stroke:#000000;stroke-linecap:square;stroke-width:1.5;"
           id="path313" />
      </g>
      <g
         id="line2d_18">
        <path
           clip-path="url(#pf7b9416be1)"
           d="M 221.4 252  L 221.4 34.56  "
           style="fill:none;stroke:#000000;stroke-linecap:square;stroke-width:1.5;"
           id="path316" />
      </g>
      <g
         id="line2d_19">
        <path
           clip-path="url(#pf7b9416be1)"
           d="M 54 258.795  L 60.832653 253.814075  L 67.665306 248.855791  L 74.497959 243.920148  L 81.330612 239.007145  L 88.163265 234.116783  L 94.995918 229.249061  L 101.828571 224.40398  L 108.661224 219.581539  L 115.493878 214.781739  L 122.326531 210.004579  L 129.159184 205.25006  L 135.991837 200.518182  L 142.82449 195.808944  L 149.657143 191.122347  L 156.489796 186.45839  L 163.322449 181.817074  L 170.155102 177.198399  L 176.987755 172.602364  L 183.820408 168.028969  L 190.653061 163.478215  L 197.485714 158.950102  L 204.318367 154.444629  L 211.15102 149.961797  L 217.983673 145.501606  L 224.816327 141.058394  L 231.64898 136.598203  L 238.481633 132.115371  L 245.314286 127.609898  L 252.146939 123.081785  L 258.979592 118.531031  L 265.812245 113.957636  L 272.644898 109.361601  L 279.477551 104.742926  L 286.310204 100.10161  L 293.142857 95.437653  L 299.97551 90.751056  L 306.808163 86.041818  L 313.640816 81.30994  L 320.473469 76.555421  L 327.306122 71.778261  L 334.138776 66.978461  L 340.971429 62.15602  L 347.804082 57.310939  L 354.636735 52.443217  L 361.469388 47.552855  L 368.302041 42.639852  L 375.134694 37.704209  L 381.967347 32.745925  L 388.8 27.765  "
           style="fill:none;stroke:#000000;stroke-dasharray:5.55,2.4;stroke-dashoffset:0;stroke-width:1.5;"
           id="path319" />
      </g>
      <g
         id="line2d_20">
        <path
           clip-path="url(#pf7b9416be1)"
           d="M 54 252  L 60.832653 247.562449  L 67.665306 243.124898  L 74.497959 238.687347  L 81.330612 234.249796  L 88.163265 229.812245  L 94.995918 225.374694  L 101.828571 220.937143  L 108.661224 216.499592  L 115.493878 212.062041  L 122.326531 207.62449  L 129.159184 203.186939  L 135.991837 198.749388  L 142.82449 194.311837  L 149.657143 189.874286  L 156.489796 185.436735  L 163.322449 180.999184  L 170.155102 176.561633  L 176.987755 172.124082  L 183.820408 167.686531  L 190.653061 163.24898  L 197.485714 158.811429  L 204.318367 154.373878  L 211.15102 149.936327  L 217.983673 145.498776  L 224.816327 141.061224  L 231.64898 136.623673  L 238.481633 132.186122  L 245.314286 127.748571  L 252.146939 123.31102  L 258.979592 118.873469  L 265.812245 114.435918  L 272.644898 109.998367  L 279.477551 105.560816  L 286.310204 101.123265  L 293.142857 96.685714  L 299.97551 92.248163  L 306.808163 87.810612  L 313.640816 83.373061  L 320.473469 78.93551  L 327.306122 74.497959  L 334.138776 70.060408  L 340.971429 65.622857  L 347.804082 61.185306  L 354.636735 56.747755  L 361.469388 52.310204  L 368.302041 47.872653  L 375.134694 43.435102  L 381.967347 38.997551  L 388.8 34.56  "
           style="fill:none;stroke:#000000;stroke-dasharray:1.5,2.475;stroke-dashoffset:0;stroke-width:1.5;"
           id="path322" />
      </g>
      <g
         id="patch_3">
        <path
           d="M 54 252  L 54 34.56  "
           style="fill:none;stroke:#000000;stroke-linecap:square;stroke-linejoin:miter;stroke-width:0.8;"
           id="path325" />
      </g>
      <g
         id="patch_4">
        <path
           d="M 388.8 252  L 388.8 34.56  "
           style="fill:none;stroke:#000000;stroke-linecap:square;stroke-linejoin:miter;stroke-width:0.8;"
           id="path328" />
      </g>
      <g
         id="patch_5">
        <path
           d="M 54 252  L 388.8 252  "
           style="fill:none;stroke:#000000;stroke-linecap:square;stroke-linejoin:miter;stroke-width:0.8;"
           id="path331" />
      </g>
      <g
         id="patch_6">
        <path
           d="M 54 34.56  L 388.8 34.56  "
           style="fill:none;stroke:#000000;stroke-linecap:square;stroke-linejoin:miter;stroke-width:0.8;"
           id="path334" />
      </g>
      <g
         id="legend_1">
        <g
           id="patch_7">
          <path
             d="M 191.32625 246.8  L 380.72 246.8  Q 383.6 246.8 383.6 243.92  L 383.6 203.087  Q 383.6 200.207 380.72 200.207  L 191.32625 200.207  Q 188.44625 200.207 188.44625 203.087  L 188.44625 243.92  Q 188.44625 246.8 191.32625 246.8  z "
             style="fill:#4c4c4c;opacity:0.5;stroke:#4c4c4c;stroke-linejoin:miter;"
             id="path337" />
        </g>
        <g
           id="patch_8">
          <path
             d="M 189.32625 244.8  L 378.72 244.8  Q 381.6 244.8 381.6 241.92  L 381.6 201.087  Q 381.6 198.207 378.72 198.207  L 189.32625 198.207  Q 186.44625 198.207 186.44625 201.087  L 186.44625 241.92  Q 186.44625 244.8 189.32625 244.8  z "
             style="fill:#ffffff;stroke:#cccccc;stroke-linejoin:miter;"
             id="path340" />
        </g>
        <g
           id="line2d_21">
          <path
             d="M 192.20625 209.86875  L 221.00625 209.86875  "
             style="fill:none;stroke:#000000;stroke-dasharray:5.55,2.4;stroke-dashoffset:0;stroke-width:1.5;"
             id="path343" />
        </g>
        <g
           id="line2d_22" />
        <g
           id="text_19">
          <!-- schwach nichtlinear -->
          <defs
             id="defs352">
            <path
               d="M 48.78125 52.59375  L 48.78125 44.1875  Q 44.96875 46.296875 41.140625 47.34375  Q 37.3125 48.390625 33.40625 48.390625  Q 24.65625 48.390625 19.8125 42.84375  Q 14.984375 37.3125 14.984375 27.296875  Q 14.984375 17.28125 19.8125 11.734375  Q 24.65625 6.203125 33.40625 6.203125  Q 37.3125 6.203125 41.140625 7.25  Q 44.96875 8.296875 48.78125 10.40625  L 48.78125 2.09375  Q 45.015625 0.34375 40.984375 -0.53125  Q 36.96875 -1.421875 32.421875 -1.421875  Q 20.0625 -1.421875 12.78125 6.34375  Q 5.515625 14.109375 5.515625 27.296875  Q 5.515625 40.671875 12.859375 48.328125  Q 20.21875 56 33.015625 56  Q 37.15625 56 41.109375 55.140625  Q 45.0625 54.296875 48.78125 52.59375  z "
               id="DejaVuSans-99" />
            <path
               d="M 54.890625 33.015625  L 54.890625 0  L 45.90625 0  L 45.90625 32.71875  Q 45.90625 40.484375 42.875 44.328125  Q 39.84375 48.1875 33.796875 48.1875  Q 26.515625 48.1875 22.3125 43.546875  Q 18.109375 38.921875 18.109375 30.90625  L 18.109375 0  L 9.078125 0  L 9.078125 75.984375  L 18.109375 75.984375  L 18.109375 46.1875  Q 21.34375 51.125 25.703125 53.5625  Q 30.078125 56 35.796875 56  Q 45.21875 56 50.046875 50.171875  Q 54.890625 44.34375 54.890625 33.015625  z "
               id="DejaVuSans-104" />
            <path
               d="M 4.203125 54.6875  L 13.1875 54.6875  L 24.421875 12.015625  L 35.59375 54.6875  L 46.1875 54.6875  L 57.421875 12.015625  L 68.609375 54.6875  L 77.59375 54.6875  L 63.28125 0  L 52.6875 0  L 40.921875 44.828125  L 29.109375 0  L 18.5 0  z "
               id="DejaVuSans-119" />
            <path
               d="M 9.421875 54.6875  L 18.40625 54.6875  L 18.40625 0  L 9.421875 0  z M 9.421875 75.984375  L 18.40625 75.984375  L 18.40625 64.59375  L 9.421875 64.59375  z "
               id="DejaVuSans-105" />
            <path
               d="M 9.421875 75.984375  L 18.40625 75.984375  L 18.40625 0  L 9.421875 0  z "
               id="DejaVuSans-108" />
          </defs>
          <g
             transform="translate(232.52625 214.90875)scale(0.144 -0.144)"
             id="g392">
            <use
               xlink:href="#DejaVuSans-115"
               id="use354" />
            <use
               x="52.099609"
               xlink:href="#DejaVuSans-99"
               id="use356" />
            <use
               x="107.080078"
               xlink:href="#DejaVuSans-104"
               id="use358" />
            <use
               x="170.458984"
               xlink:href="#DejaVuSans-119"
               id="use360" />
            <use
               x="252.246094"
               xlink:href="#DejaVuSans-97"
               id="use362" />
            <use
               x="313.525391"
               xlink:href="#DejaVuSans-99"
               id="use364" />
            <use
               x="368.505859"
               xlink:href="#DejaVuSans-104"
               id="use366" />
            <use
               x="431.884766"
               xlink:href="#DejaVuSans-32"
               id="use368" />
            <use
               x="463.671875"
               xlink:href="#DejaVuSans-110"
               id="use370" />
            <use
               x="527.050781"
               xlink:href="#DejaVuSans-105"
               id="use372" />
            <use
               x="554.833984"
               xlink:href="#DejaVuSans-99"
               id="use374" />
            <use
               x="609.814453"
               xlink:href="#DejaVuSans-104"
               id="use376" />
            <use
               x="673.193359"
               xlink:href="#DejaVuSans-116"
               id="use378" />
            <use
               x="712.402344"
               xlink:href="#DejaVuSans-108"
               id="use380" />
            <use
               x="740.185547"
               xlink:href="#DejaVuSans-105"
               id="use382" />
            <use
               x="767.96875"
               xlink:href="#DejaVuSans-110"
               id="use384" />
            <use
               x="831.347656"
               xlink:href="#DejaVuSans-101"
               id="use386" />
            <use
               x="892.871094"
               xlink:href="#DejaVuSans-97"
               id="use388" />
            <use
               x="954.150391"
               xlink:href="#DejaVuSans-114"
               id="use390" />
          </g>
        </g>
        <g
           id="line2d_23">
          <path
             d="M 192.20625 231.00525  L 221.00625 231.00525  "
             style="fill:none;stroke:#000000;stroke-dasharray:1.5,2.475;stroke-dashoffset:0;stroke-width:1.5;"
             id="path395" />
        </g>
        <g
           id="line2d_24" />
        <g
           id="text_20">
          <!-- linear -->
          <g
             transform="translate(232.52625 236.04525)scale(0.144 -0.144)"
             id="g411">
            <use
               xlink:href="#DejaVuSans-108"
               id="use399" />
            <use
               x="27.783203"
               xlink:href="#DejaVuSans-105"
               id="use401" />
            <use
               x="55.566406"
               xlink:href="#DejaVuSans-110"
               id="use403" />
            <use
               x="118.945312"
               xlink:href="#DejaVuSans-101"
               id="use405" />
            <use
               x="180.46875"
               xlink:href="#DejaVuSans-97"
               id="use407" />
            <use
               x="241.748047"
               xlink:href="#DejaVuSans-114"
               id="use409" />
          </g>
        </g>
      </g>
    </g>
  </g>
  <defs
     id="defs420">
    <clipPath
       id="pf7b9416be1">
      <rect
         height="217.44"
         width="334.8"
         x="54"
         y="34.56"
         id="rect417" />
    </clipPath>
  </defs>
</svg>
